<svg xmlns="http://www.w3.org/2000/svg" viewBox="0 0 160 91"><path d="M159.19 59.1c0 1.44-1.18 2.58-2.6 2.58-.47 0-.85-.13-1.24-.32L135.9 80.81v8.86c-17.5-5.81-36.21-8.95-55.65-8.95S42.1 83.87 24.6 89.67v-8.84L5.12 61.36c-.37.19-.77.32-1.23.32-1.42 0-2.6-1.15-2.6-2.58s1.18-2.6 2.6-2.6a2.588 2.588 0 012.13 4.08l20.21 7.34 5.81-28.05h-.11c-2.58 0-4.66-2.08-4.66-4.66s2.08-4.69 4.66-4.69c2.6 0 4.68 2.11 4.68 4.69 0 1.66-.87 3.1-2.16 3.94l20.87 14.23 22.97-35.44c-4.19-.68-7.39-4.31-7.39-8.69 0-4.89 3.95-8.82 8.82-8.82s8.82 3.94 8.82 8.82c0 4.06-2.76 7.48-6.48 8.52l23.1 35.62 20.87-14.23c-1.29-.84-2.16-2.27-2.16-3.94 0-2.58 2.08-4.69 4.66-4.69s4.68 2.11 4.68 4.69c0 2.58-2.1 4.66-4.68 4.66h-.1l5.81 28.05 20.21-7.34c-.29-.44-.47-.94-.47-1.48 0-1.44 1.15-2.6 2.6-2.6a2.601 2.601 0 012.61 2.59z" fill="#032f78"/></svg>