<svg version="1.1" id="Capa_1" xmlns="http://www.w3.org/2000/svg" x="0" y="0" viewBox="0 0 216 150" xml:space="preserve"><style>.st0{fill:#fff}</style><path class="st0" d="M2.45 8.31l7.38.03h9.21c12.59-.91 12.59-.91 12.59 11.51 0 3.97-.29 7.96.08 11.9.4 4.33-.62 6.04-5.47 5.76-7.9-.46-15.86-.06-23.79-.02V8.31z"/><path class="st0" d="M7.17 37.76c16.96 3.45 32.28-2.24 48.08-2.56 18.74-.37 24.06 6.79 27.17 27.7 1.25 8.4 1.11 16.96.47 25.47-.24 3.23-1.49 5.49-4.93 5.41-3.78-.09-4.8-2.64-4.72-6.06.21-9.02.67-18.05-.97-27-.51-2.79-.72-5.7-3.05-9v85.73c0 8.29-2.28 11.74-7.65 11.62-5.22-.12-7.25-3.32-7.25-11.47 0-15.62.03-31.24-.06-46.86-.01-1.43 1.13-4.13-1.7-3.93-2.12.15-1.09 2.54-1.09 3.86-.08 15.97-.05 31.93-.06 47.9 0 1.39.17 2.83-.13 4.15-.9 4.02-3.39 6.45-7.67 6.31-3.98-.13-6.44-2.35-7.04-6.32-.26-1.7-.18-3.46-.18-5.19-.01-28.64-.06-57.27.06-85.91.02-3.81-.45-5.58-5.01-5.05-6.06.71-12.12-.25-17.78-2.8-2.27-1.04-4.68-2.06-6.49-6zm47.38-19.67c3.6.81 5.71 1.62 7.84 1.69 4.82.15 3.95 2.55 2.41 5.35-3.5 6.36-11.47 8.84-17.98 5.63-6.53-3.22-9.43-10.98-6.59-17.66 2.8-6.6 10.8-10.37 17.29-7.31 4.16 1.96 8.25 3.18 12.75 3.7 2.33.27 5.68.9 5.75 3.53.07 2.71-3.27 3.03-5.58 3.68-4.7 1.33-9.58.42-15.89 1.39z"/><path class="st0" d="M145.15 107.5H81.67c-1.21 0-2.43.01-3.64-.01-.88-.01-1.79-.06-1.8-1.27-.01-1.27.62-1.86 1.93-1.79 1.04.06 2.08.01 3.12.01h127.49c.69 0 1.39-.06 2.08.01 1.24.14 3.16-.63 3.08 1.62-.08 2.26-2.04 1.38-3.2 1.38-21.87.06-43.72.05-65.58.05zm33.21-4.35c-6.4.01-11.49-5.05-11.55-11.47-.06-6.52 4.81-11.56 11.28-11.67 6.63-.11 11.98 5.13 11.9 11.67-.07 6.33-5.28 11.47-11.63 11.47zm5.86-11.77c-.39-3.56-2.41-5.81-6-5.73-3.54.09-5.82 2.34-5.76 5.99.06 3.66 2.42 5.81 5.97 5.76 3.56-.05 5.59-2.28 5.79-6.02zm-86.57 11.77c-6.4.01-11.49-5.05-11.55-11.47-.06-6.52 4.81-11.56 11.28-11.67 6.63-.11 11.98 5.13 11.9 11.67-.07 6.33-5.28 11.47-11.63 11.47zm5.85-11.77c-.39-3.56-2.41-5.81-6-5.73-3.54.09-5.82 2.34-5.76 5.99.06 3.66 2.42 5.81 5.97 5.76 3.57-.05 5.6-2.28 5.79-6.02zM19.04 8.34H9.83c.62-2.43.66-5.23 4.31-5.34 3.83-.11 4.32 2.59 4.9 5.34z"/><path class="st0" d="M194.54 43.88c-2.16-2.88-3.84-6.21-5.24-9.54-1.38-3.3-3.5-3.98-6.86-3.97-36.11.12-72.21.06-108.32.12-1.57 0-3.37-.77-4.87.75 22.22 9.31 19.02 29.63 21.24 47.94 12.53-4.44 18.59-1.65 22.59 10.66.73 2.26 2.07 1.92 3.53 1.93 14.75.02 29.51-.02 44.26.05 2.01.01 2.8-.37 3.31-2.66 1.7-7.67 7.14-12.05 14.17-12.04 6.87 0 12.15 4.14 13.97 11.58.65 2.66 1.77 3.36 4.2 3.12 1.55-.15 3.15-.22 4.68.01 3.59.55 3.99-1.14 4.3-4.34 1.54-15.92-1.2-30.57-10.96-43.61zm-20.48 25.5c0 .44-.36.8-.8.8h-10.99c-.44 0-.8-.36-.8-.8v-2.6c0-.44.36-.8.8-.8h10.99c.44 0 .8.36.8.8v2.6zm-10.99-7.95c-2.23.02-3.51-.22-3.42-2.99.19-6.41.15-12.83.01-19.24-.05-2.28.66-2.98 2.94-2.93 6.24.14 12.48.09 18.71.02 1.75-.02 2.82.5 3.7 2.13 3.99 7.44 8.13 14.8 12.66 22.98-12.12-.01-23.36-.05-34.6.03z"/></svg>