<svg version="1.1" id="Capa_1" xmlns="http://www.w3.org/2000/svg" x="0" y="0" viewBox="0 0 165 150" xml:space="preserve"><style>.st0{fill:#fff}</style><path class="st0" d="M23.02 106.96H7.47c-.61 0-1.22.02-1.82 0-1.85-.08-2.87-1.07-2.89-2.9-.02-2.54-.05-5.09.02-7.63.15-5.58 4.25-10.8 9.63-12.38 3.98-1.17 8-2.13 12.12-2.62 1.21-.14 1.69-.96 2.13-1.84.42-.84-.48-1.12-.87-1.55-2.01-2.23-3.33-4.75-3.88-7.73-.87-4.66-1.98-9.28-2.83-13.95-1.45-8 1.34-14.4 7.92-18.99 6.51-4.55 13.28-4.51 20.04-.38.18.11.37.21.79.45-.15-13.14 5.18-23.36 15.84-30.72C70.12 2.27 77.32.33 85.15.92c16.26 1.24 32.71 16.25 31.82 36.49 2.29-1.39 4.57-2.57 7.13-3.07 7.61-1.48 15.73 2.44 19.57 9.42 2.22 4.03 2.9 8.28 1.95 12.8-.97 4.59-1.95 9.17-2.82 13.78-.56 2.98-1.88 5.5-3.91 7.71-.39.42-1.3.7-.82 1.56.48.85.91 1.69 2.13 1.83 4.12.48 8.14 1.46 12.12 2.62 5.35 1.56 9.47 6.83 9.63 12.39.07 2.49.03 4.97.02 7.46-.01 2.01-1.05 3.03-3.08 3.04-5.09.01-10.17 0-15.26-.01h-1.91c2.43 2.7 4.24 5.42 5.41 8.54 1.02 2.72 1.57 5.51 1.57 8.42 0 7.35 0 14.7-.01 22.05 0 2.59-.87 3.44-3.5 3.44H19.49c-2.61 0-3.46-.84-3.46-3.47-.01-7.24-.01-14.48-.02-21.72 0-6.54 2.37-12.15 7.01-17.24zm48.4-14.26a5.37 5.37 0 01-.32-.19c-.01.05-.04.11-.02.13.1.1.19.25.34.06-.02.05-.08.13-.06.15 3.3 4.96 7.1 9.56 10.59 14.37.34.46.6.33.89-.05 3.63-4.85 7.26-9.7 10.98-14.68-7.41 1.61-15.48 1.67-22.4.21zm-31.97 6.41c.76-.31 1.78-.07 2.14-1.22 1.34-4.26 2.25-8.61 2.88-13.02.21-1.49-1.05-2.37-2.55-2.1-3.06.54-6.15.54-9.22.03-1.85-.31-2.91.58-2.64 2.46.7 4.81 1.82 9.53 3.31 14.16.41 1.28.94 1.48 1.92.58 1.46.03 2.76-.68 4.16-.89zm86.12-.03c1.22.58 2.55.75 3.87.92.55.31 1.24 1.17 1.64.03a73.621 73.621 0 003.62-15.2c.18-1.45-1.03-2.33-2.43-2.07-3.12.58-6.26.55-9.37.04-1.81-.29-2.88.6-2.6 2.48.6 3.87 1.43 7.68 2.47 11.47.44 1.61 1.21 2.34 2.8 2.33zm-41.3 17.81c-1.71-1.56-1.83-1.56-3.79.01-.68.12-1.15.64-1.71.97-1.5.89-2.98.7-3.82-.51-.93-1.33-.61-2.8.85-3.87.53-.39 1.07-.79 1.65-1.1.95-.49 1.1-.94.37-1.86-2.09-2.64-4.07-5.36-6.09-8.06-1.68-2.23-3.35-4.46-5.03-6.7-1.41 1.43-1.8 2.92-1.38 4.79.44 1.93.53 3.93.81 5.9 1.69 11.8 3.84 23.5 7.31 34.92.86 2.84.89 2.84 3.96 2.64h9.94c3.03.2 3.04.2 3.96-2.63.26-.79.49-1.58.71-2.37 1.95-7.17 3.59-14.39 4.77-21.76.77-4.81 1.69-9.6 2.34-14.43.32-2.35 1.5-4.94-1.11-7.01-3.77 5.02-7.56 10.09-11.37 15.14-.43.58-.22.85.28 1.16.79.5 1.6 1 2.33 1.58 1.23.98 1.42 2.38.56 3.67-.7 1.05-2.13 1.38-3.39.74-.75-.36-1.44-.8-2.15-1.22zm-1.88-28.51c1.6 0 3.2-.02 4.81.01 3.1.06 5.72-1.01 7.89-3.21 1.67-1.69 3.37-3.35 5.03-5.04 2.5-2.55 4.09-5.59 4.8-9.09 2.01-9.95 4.01-19.89 6.02-29.84 2.99-14.76-4.92-28.84-19.2-33.54-10.19-3.35-19.81-1.7-27.93 5.37-8.34 7.26-12.16 16.56-10.07 27.72 1.83 9.76 3.91 19.47 5.83 29.21.76 3.82 2.19 7.29 4.95 10.1 1.78 1.81 3.58 3.61 5.39 5.39 1.98 1.95 4.39 2.9 7.17 2.93 1.77 0 3.54-.02 5.31-.01zm-22.55 12.67c-.86 3.8-1.7 7.61-2.59 11.4-.42 1.79-1.74 2.75-3.14 2.4-1.49-.37-2.3-1.72-1.95-3.47.58-2.86 1.23-5.7 1.89-8.54.25-1.07.11-1.62-1.16-1.23-.42.13-.88.1-1.3.19a272.33 272.33 0 00-16.86 4.11c-7.75 2.15-13.35 9.11-13.4 17.11-.04 6.47.03 12.93-.04 19.4-.02 1.42.46 1.73 1.79 1.72 10.83-.05 21.67-.02 32.5-.02h13.1c-4.33-14.18-6.69-28.57-8.84-43.07zm44.98-.43c-.55 3.6-1.07 6.75-1.51 9.9-1.51 10.87-3.7 21.6-6.84 32.12-.35 1.18-.26 1.49 1.04 1.49 14.76-.03 29.51-.03 44.27.02 1.34 0 1.67-.42 1.66-1.7-.06-6.3-.04-12.6-.03-18.9.02-7.72-4.52-14.61-11.82-17.09-6.47-2.2-13.14-3.73-19.88-4.9-1.34-.23-1.26.35-1.06 1.23.59 2.58 1.2 5.15 1.79 7.73.56 2.43-.15 4.01-1.94 4.37-1.55.31-2.7-.78-3.24-3.17-.8-3.55-1.56-7.09-2.44-11.1zm22.85-22.86c1.22-.15 2.86.51 4.03-.39 2.53-1.93 5.12-3.9 5.75-7.37.45-2.44 1.07-4.85 1.47-7.3.6-3.64 1.9-7.17 1.81-10.92-.2-7.73-6.97-13.34-14.88-12.44-7.91.9-12.61 8.65-11.43 15.39.87 5 1.98 9.96 3.02 14.93 1.05 5.03 4.91 8.12 10.23 8.1zm-90.28 0c1.27-.13 2.97.52 4.18-.44 2.49-1.97 5.08-3.94 5.69-7.43.56-3.21 1.34-6.37 1.92-9.58.66-3.66 1.69-7.19.9-11.09-1.29-6.41-7.86-10.89-15.07-9.76-7.52 1.18-11.98 9.09-10.9 14.9.94 5.1 2.02 10.18 3.1 15.25 1.07 5.09 4.83 8.12 10.18 8.15zm-19.18 23.89c2.98 0 5.96-.02 8.94.01.96.01 1.31-.27 1-1.27-1.26-4.05-2.35-8.14-2.93-12.35-.12-.92-.51-1.48-1.65-1.24-3.45.72-6.89 1.42-10.26 2.47-3.09.96-5.22 3.78-5.25 7.01-.01 1.32.05 2.65-.02 3.97-.06 1.07.29 1.46 1.4 1.43 2.92-.07 5.85-.03 8.77-.03zm128.32.01v-.01c2.76 0 5.53-.07 8.29.03 1.4.05 2.06-.26 1.88-1.8-.13-1.03-.01-2.1-.02-3.15-.01-3.63-1.8-6.26-5.25-7.37-3.3-1.06-6.66-1.91-10.11-2.41-1.27-.18-1.69.09-1.84 1.23-.53 4.06-1.58 8-2.8 11.89-.43 1.38-.01 1.63 1.24 1.61 2.86-.05 5.74-.02 8.61-.02zm-32.28-14.93c-1.08.22-2.16.42-3.23.65-2.79.6-5.59 1.18-8.27 2.22-1.32.51-1.62 1.03-.77 2.4 1.29 2.08 2.58 3.84 5.37 3.43.1-.01.21.07.32.09 2.7.49 5.4.99 8.11 1.44.66.11 1.68.31 1.35-.92-.74-2.77-1.27-5.57-1.78-8.38-.12-.58-.36-1.05-1.1-.93zM48.6 97.06c2.97-.54 5.92-1.39 8.91-1.53 2.59-.13 3.98-1.26 5.11-3.36.97-1.79 1.06-1.97-.91-2.63-3.55-1.18-7.16-2.08-10.88-2.6-1.12-.16-1.4.16-1.52 1.03-.36 2.67-1.03 5.28-1.66 7.89-.21.84 0 1.28.95 1.2zm11.54-13.77c-4.24-4.72-5.6-10.55-6.7-16.51-.19.25-.23.45-.27.65-.68 3.94-1.56 7.79-4.59 10.74-1.12 1.09-.62 2.94.92 3.15 3.54.49 7.02 1.3 10.64 1.97zm44.48-.01c3.54-.66 6.96-1.55 10.47-1.91 1.09-.11 1.37-1.03 1.8-1.76.46-.78-.38-1.04-.74-1.43-2.03-2.2-3.46-4.69-3.97-7.68-.19-1.13-.56-2.22-.85-3.33-1.14 5.83-2.62 11.46-6.71 16.11z"/><path class="st0" d="M84.27 116.89l2.97 25.82c.05.44.07.88.1 1.32H77.4c.71-6.25 1.42-12.5 2.12-18.74.32-2.8.63-5.59.95-8.39 1.96-1.57 2.08-1.57 3.8-.01zM35.3 100c.36-2.57.71-5.13 1.09-7.7.07-.5.23-1.07.82-1.09.72-.03.84.63.93 1.16.28 1.74.52 3.49.78 5.24.08.53-.01 1.13.54 1.49-1.41.22-2.71.93-4.16.9zm90.27-.92c.31-2.07.61-4.15.94-6.22.11-.67.06-1.65 1.02-1.63.83.02.81.91.9 1.55.34 2.4.67 4.8 1 7.21-1.31-.16-2.64-.33-3.86-.91z"/></svg>