<svg version="1.1" id="Capa_1" xmlns="http://www.w3.org/2000/svg" x="0" y="0" viewBox="0 0 174 150" xml:space="preserve"><style>.st0{fill:#fff}</style><path class="st0" d="M146.69 12.86l4.59 8.13 8.38 4.44-8.38 4.45-4.59 8.13-4.58-8.13-8.38-4.45 8.38-4.44zM118.54 1l3.01 5.34 5.51 2.92-5.51 2.93-3.01 5.34-3.01-5.34-5.51-2.93 5.51-2.92zM44.02 78.09l-12.44-7.37c-1.24-.73-1.75-2.22-1.22-3.53l7.6-18.71c.53-1.3 2.25-1.64 3.27-.66l13.83 13.41c.96.93 1.15 2.36.47 3.49l-7.37 12.35c-.84 1.41-2.71 1.87-4.14 1.02zm82.51 0l12.44-7.37c1.24-.73 1.75-2.22 1.22-3.53l-7.6-18.71c-.53-1.3-2.25-1.64-3.27-.66l-13.83 13.41c-.96.93-1.15 2.36-.47 3.49l7.37 12.35c.84 1.41 2.71 1.87 4.14 1.02zm12.77 70.94H31.1c-2.04 0-3.69-1.65-3.69-3.69v-5.19c0-2.04 1.65-3.69 3.69-3.69h108.2c2.04 0 3.69 1.65 3.69 3.69v5.19c0 2.04-1.65 3.69-3.69 3.69z"/><path class="st0" d="M164.56 61.57l-37.14 25.44c-2.1 1.44-4.99 1.02-6.56-.95l-33.46-42c-1.02-1.28-3.01-1.28-4.02 0L49.83 86.24c-1.57 1.97-4.46 2.4-6.56.96L5.87 61.57c-2.82-1.93-6.49.89-5.21 3.99l26.75 64.54h115.58l26.78-64.54c1.28-3.1-2.39-5.92-5.21-3.99zm-79.18 52.19L73.16 96.69l12.41-17.25 12.04 17.07-12.23 17.25z"/></svg>