<svg version="1.1" id="Capa_1" xmlns="http://www.w3.org/2000/svg" x="0" y="0" viewBox="0 0 150 130" xml:space="preserve"><style>.st0{fill:#fff}</style><path class="st0" d="M148.26 128.5c-.11.46-.27.6-.74.59-2.51-.02-5.01-.04-7.52.01-.63.01-.68-.22-.63-.73.23-2.57.39-5.15.66-7.72.18-1.74.03-3.46-.09-5.18-.36-5.49-1.24-10.9-2.89-16.16-1.05-3.33-2.45-6.5-4.37-9.43-1.76-2.68-3.55-5.33-5.45-7.92-3.61-4.9-7.94-8.94-13.42-11.68-.83-.42-.8-.46-.15-1.18 1.96-2.18 4.07-4.2 5.51-6.82 3.06-5.58 4.8-11.52 5.2-17.87.27-4.3.2-8.59-.95-12.77-1.79-6.44-5.67-11.3-11.48-14.58-1.77-1-3.8-1.37-5.76-1.87-.48-.12-.65-.27-.64-.78.03-2.68.01-5.37.02-8.05 0-.26-.15-.65.4-.53 3.2.7 6.42 1.35 9.39 2.79 5.4 2.62 9.5 6.72 12.79 11.65 2.85 4.26 4.36 9.03 4.96 14.1.93 7.84.39 15.57-2 23.12-1.08 3.41-2.51 6.69-4.2 9.85-.14.26-.18.41.08.62 2.9 2.28 5.19 5.14 7.41 8.06 2.83 3.73 5.44 7.62 7.85 11.64 3.13 5.23 4.7 11.01 5.71 16.97.57 3.39.92 6.81 1.07 10.24-.01.14-.48 12.43-.76 13.63zM75.75 75.14c1.93-1.86 3.76-3.68 5.65-5.43 3.31-3.04 6.29-6.32 8.29-10.4 1.84-3.73 2.8-7.7 3.17-11.82.4-4.4.31-8.77-.98-13.04C88.72 23.99 81.87 17 71.58 13.6c-9-2.98-17.88-2.2-26.18 2.5-9.01 5.1-14.32 12.9-15.5 23.25-.82 7.19.1 14.21 3.31 20.8 1.75 3.61 4.3 6.63 7.24 9.33 1.96 1.8 3.78 3.73 5.75 5.66-1.12.61-2.18 1.19-3.24 1.76-4.69 2.5-9.23 5.22-13.37 8.59C22 91.65 17.06 99.53 14.4 108.9c-1.84 6.49-2.32 13.11-2.04 19.81.03.6-.11.75-.7.74-3.06-.03-6.12-.02-9.17-.01-.43 0-.66-.04-.68-.58-.36-9.59.71-18.97 4.18-27.98 4.5-11.71 11.9-21.07 22.64-27.68.42-.26.65-.39.2-.9-4.88-5.55-7.58-12.13-8.85-19.34-.82-4.66-1.09-9.37-.63-14.09.9-9.29 4.52-17.39 10.91-24.18C37.1 7.43 45.53 3.15 55.4 1.81c18.64-2.52 36.06 6.76 44.01 22.9 3.37 6.84 4.56 14.09 4.08 21.67-.35 5.6-1.43 11.01-3.66 16.18-1.54 3.57-3.56 6.83-6.15 9.74-.29.32-.53.51.05.86 12.45 7.67 20.42 18.72 24.58 32.64 2.17 7.25 2.87 14.68 2.6 22.23-.05 1.43-.04 1.43-1.47 1.43-2.83 0-5.66-.01-8.5.01-.5 0-.62-.14-.6-.62.16-4.09.14-8.18-.46-12.24-1.77-11.99-6.57-22.37-16.11-30.21-3.65-3-7.67-5.43-11.8-7.7-2.05-1.14-4.08-2.34-6.22-3.56z"/><path class="st0" d="M61.63 75.26h7.29c1.53 0 2.3.76 2.31 2.31.01 1.4.01 2.81 0 4.21-.01 1.55-.78 2.3-2.31 2.3h-1.05c-1.27.02-1.95.75-1.79 2.03.31 2.41.67 4.81 1.02 7.22.77 5.35 1.56 10.71 2.33 16.06.18 1.28.49 2.56.2 3.88-.17.77-.42 1.49-.84 2.15-1.91 3.03-3.82 6.05-5.73 9.08-.86 1.35-1.69 1.37-2.55.03-1.98-3.07-3.95-6.15-5.93-9.22-1.11-1.73-1.04-3.59-.73-5.51.51-3.11.96-6.24 1.43-9.36.02-.12.03-.25.02-.37-.01-.22.08-.5-.18-.6-.26-.1-.41.15-.54.32-.76 1.06-1.51 2.12-2.26 3.19-.91 1.29-1.81 2.58-2.72 3.87-.14.2-.29.42-.46.59-.55.54-1.74.81-2.31.49-.74-.41-.56-1.16-.55-1.81.02-.67.32-1.24.69-1.8 3.05-4.55 6.07-9.13 9.16-13.66 1.05-1.54 1.14-3.29 1.25-5.02.06-.92-.66-1.52-1.58-1.54-.58-.02-1.15 0-1.73-.01-1.22-.01-2.04-.76-2.07-1.99-.04-1.58-.03-3.16-.01-4.74.02-1.32.81-2.08 2.13-2.09 2.5-.02 5.01-.01 7.51-.01z"/></svg>